<?xml version="1.0" encoding="utf-8"?>
<!DOCTYPE svg PUBLIC "-//W3C//DTD SVG 20010904//EN" "http://www.w3.org/TR/2001/REC-SVG-20010904/DTD/svg10.dtd">
<svg version="1.0" xmlns="http://www.w3.org/2000/svg" width="3041px" height="3511px" viewBox="0 0 3041 3511" preserveAspectRatio="xMidYMid meet">
 <g fill="#ffffff">
  <path d="M398.7 2561.1 c0 -1.3 8.3 -22.7 11.4 -29.1 2.3 -5.2 7.5 -17.5 9.8 -23.7 1.1 -3.1 3.9 -9.6 6 -14.4 2 -4.7 3.8 -9.2 3.8 -9.8 0 -0.7 1 -2.9 2.1 -5.2 1.1 -2.3 3.9 -8.8 6 -14.7 2.1 -5.9 4.2 -11.3 4.9 -12.3 0.7 -0.8 4.2 -10.1 8.2 -20.4 3.9 -10.3 7.5 -19.4 8.2 -20.4 0.5 -0.8 3.4 -8.2 6.5 -16.3 2.9 -8 7 -18.6 9.2 -23.4 2.1 -4.7 3.9 -9.2 3.9 -9.8 0.2 -0.7 1.5 -4.1 3.3 -7.7 1.8 -3.6 3.1 -7.7 3.3 -9 0 -1.5 0.7 -3.3 1.3 -4.1 0.8 -1 4.6 -10.1 8.5 -20.4 3.8 -10.3 8.3 -21.9 10 -25.7 1.8 -3.8 3.1 -7.2 3.1 -7.7 0 -0.5 1.8 -4.7 3.8 -9.5 2.1 -4.7 4.9 -11.3 6 -14.4 2.1 -5.6 4.2 -10.9 8.8 -21.6 1.1 -2.9 5.4 -13.9 9.2 -24.2 3.9 -10.3 7.5 -19.4 8.2 -20.4 0.7 -0.8 2.8 -6.4 4.9 -12.3 2.1 -5.9 4.9 -12.4 6 -14.7 1.1 -2.3 2.1 -5.2 2.1 -6.7 0 -1.3 0.7 -3.1 1.5 -4.1 0.7 -0.8 2.8 -5.1 4.4 -9.6 1.6 -4.4 3.9 -10 5.1 -12.3 1.1 -2.3 2.1 -5.2 2.1 -6.7 0 -1.3 0.7 -3.1 1.3 -4.1 0.8 -0.8 3.9 -8 6.9 -16.2 2.9 -8 6 -15.4 6.9 -16.2 0.7 -1 1.3 -2.6 1.3 -3.9 0 -1.1 1.8 -6 3.9 -10.6 2.1 -4.7 4.4 -10.3 5.1 -12.6 0.7 -2.3 1.8 -4.7 2.5 -5.7 0.7 -0.8 2.8 -6.4 4.9 -12.3 2.1 -5.9 4.2 -11.3 4.9 -12.3 0.7 -0.8 5.4 -13.1 10.6 -27 5.2 -13.9 10 -26 10.6 -27 0.5 -0.8 2.5 -5.2 4.1 -9.8 1.5 -4.4 3.8 -10.3 5.1 -13.1 1.1 -2.6 4.4 -10.8 7.2 -18 2.8 -7.2 5.7 -14.5 6.5 -16.3 0.8 -1.8 4.9 -12.1 9 -22.9 4.1 -10.8 8.2 -21.1 9 -22.9 0.8 -1.8 3.8 -9.2 6.5 -16.3 2.8 -7.2 6 -15.2 7.2 -18 1.3 -2.6 3.6 -8.5 5.1 -13.1 1.6 -4.4 3.6 -8.8 4.1 -9.8 0.7 -0.8 5.4 -13.1 10.6 -27 5.2 -13.9 10 -26 10.6 -27 0.5 -0.8 2.5 -5.2 4.1 -9.8 1.6 -4.4 4.6 -12.1 6.7 -16.8 2.1 -4.7 3.9 -9.2 3.9 -9.8 0.2 -0.7 1.5 -4.1 3.3 -7.7 1.8 -3.6 3.1 -7.7 3.3 -9 0 -1.5 0.7 -3.3 1.3 -4.1 0.8 -1 4.6 -10.1 8.5 -20.4 3.8 -10.3 8.3 -21.9 10 -25.7 1.8 -3.8 3.1 -7.2 3.1 -7.7 0 -0.5 1.8 -4.7 3.9 -9.5 2.1 -4.7 5.4 -12.9 7.4 -18.3 2 -5.2 4.9 -12.6 6.5 -16.3 1.6 -3.6 6.2 -15 10 -25.3 3.8 -10.1 8 -20.4 9.2 -22.9 1.3 -2.3 2.3 -5.4 2.3 -6.7 0 -1.5 0.7 -3.3 1.3 -4.1 0.8 -1 2.8 -5.2 4.4 -9.8 1.6 -4.4 4.6 -12.1 6.7 -16.8 2.1 -4.7 3.9 -9 3.9 -9.5 0 -0.5 1.1 -3.3 2.5 -6 1.3 -2.9 6.9 -17 12.3 -31.4 5.4 -14.4 11.3 -29.1 12.9 -32.7 1.6 -3.6 3.6 -8.3 4.2 -10.6 0.7 -2.3 1.8 -4.7 2.5 -5.7 0.5 -0.8 2.5 -5.2 4.1 -9.8 2.6 -7.7 5.7 -15.2 9.2 -22.9 0.8 -1.8 4.4 -11.3 8.2 -21.2 3.6 -9.8 8 -20.9 9.6 -24.5 1.5 -3.6 4.9 -12.1 7.4 -18.8 2.5 -6.7 6.2 -16.2 8.3 -20.9 2.1 -4.7 3.9 -9 3.9 -9.5 0 -0.5 1.3 -3.9 3.1 -7.7 1.6 -3.8 6.9 -17.2 11.6 -29.7 4.7 -12.6 10.3 -26.8 12.4 -31.5 2.1 -4.7 3.9 -9.2 3.9 -9.8 0 -0.7 1 -2.9 2.1 -5.2 1.1 -2.3 3.9 -8.8 6 -14.7 2.1 -5.9 4.2 -11.3 4.9 -12.3 0.7 -0.8 5.4 -13.1 10.6 -27 5.2 -13.9 10 -26 10.6 -27 0.7 -0.8 2.8 -6.4 4.9 -12.3 2.1 -5.9 4.2 -11.3 4.9 -12.3 0.7 -0.8 3.3 -7.2 5.7 -13.9 2.5 -6.7 5.6 -14.4 6.7 -17.2 1.1 -2.6 5.6 -13.7 9.6 -24.5 4.1 -10.8 8.2 -21.1 9 -22.9 0.8 -1.8 3.8 -9.2 6.5 -16.3 2.8 -7.2 6 -15.2 7.2 -18 1.3 -2.6 3.6 -8.5 5.1 -13.1 1.6 -4.4 3.6 -8.8 4.1 -9.8 0.7 -0.8 4.2 -10.1 8.2 -20.4 3.8 -10.3 7.5 -19.4 8.3 -20.3 0.8 -1 1.5 -2.8 1.5 -4.1 0 -1.5 1 -4.4 2.1 -6.7 1.1 -2.3 3.4 -7.7 5.1 -12.3 1.6 -4.4 4.7 -12.1 6.9 -16.8 2.1 -4.7 3.9 -9.2 3.9 -9.8 0.2 -0.7 1.5 -4.1 3.3 -7.7 1.8 -3.6 3.1 -7.5 3.3 -8.7 0 -1.1 0.8 -3.3 1.6 -4.9 1 -1.5 15.2 -38.4 31.7 -82 l30.1 -79.3 383.2 -0.5 383.2 -0.3 2.8 7.7 c1.6 4.4 3.9 10.1 5.1 13.1 1.3 2.8 2.3 5.7 2.3 6.4 0 1.5 7.2 21.2 10.8 29.6 1.3 2.8 2.3 5.9 2.3 6.9 0 1 0.7 3.1 1.5 4.7 0.8 1.5 2.8 6.5 4.2 10.9 1.5 4.6 3.8 10.5 5.1 13.4 1.3 2.8 2.3 5.9 2.3 6.9 0 1 0.7 3.1 1.5 4.7 0.8 1.5 3.9 9.5 6.7 17.5 2.9 8.2 6.4 17 7.5 19.9 1.3 2.8 2.3 6.2 2.3 7.5 0 1.5 0.7 2.9 1.5 3.4 0.8 0.5 2 2.8 2.5 5.1 0.7 2.3 2.8 8 4.9 12.7 2 4.6 4.7 11.1 5.9 14.2 1.1 3.1 3.1 8 4.2 10.6 1.1 2.8 5.6 13.7 9.6 24.5 4.1 10.8 8.2 20.9 9 22.4 1 1.6 1.6 3.8 1.6 4.7 0 0.8 1.8 5.7 4.1 10.5 2.1 4.9 4.4 10.8 5.1 13.1 0.5 2.3 1.6 4.6 2.5 5.1 0.8 0.5 1.5 2 1.5 3.3 0 1.5 1.8 6.5 4.1 11.4 2.3 4.9 4.1 9.3 4.1 9.8 0 0.5 1.3 3.9 3.1 7.7 1.6 3.8 5.1 12.4 7.5 19.1 2.5 6.7 5.2 12.9 5.9 13.9 0.8 0.8 1.5 2.6 1.5 4.1 0.2 1.3 1.5 5.4 3.3 9 1.8 3.6 3.1 7.8 3.3 9.3 0 1.5 0.7 3.1 1.5 3.6 0.8 0.5 2 2.8 2.5 5.1 0.7 2.3 2.8 8 4.9 12.7 2.1 4.6 5.1 12.3 6.7 16.7 1.6 4.6 3.6 8.8 4.4 9.8 0.7 0.8 1.3 2.5 1.3 3.8 0 1.1 1.8 6.2 4.1 10.9 2.1 4.9 4.4 10.8 5.1 13.1 0.5 2.3 1.6 4.6 2.5 5.1 0.8 0.5 1.5 2 1.5 3.4 0 1.3 1.1 4.9 2.5 8 4.7 10.8 7 16.3 11.4 28.4 2.5 6.7 6.2 16.2 8.3 20.9 2.1 4.7 3.9 9 3.9 9.5 0 0.5 1.3 3.9 3.1 7.7 1.6 3.8 5.1 12.4 7.5 19.1 2.5 6.7 5.2 12.9 5.9 13.9 0.8 0.8 1.5 2.6 1.5 4.1 0.2 1.3 1.5 5.4 3.3 9 1.8 3.6 3.1 7.8 3.3 9.3 0 1.5 0.7 3.1 1.5 3.6 0.8 0.5 2 2.8 2.5 5.1 0.7 2.3 2.8 8 4.9 12.7 2.1 4.6 5.9 14.1 8.3 20.8 2.5 6.7 5.1 13.1 5.7 13.9 0.7 1 2.8 6.4 4.9 12.3 2.1 5.9 4.4 11.3 5.2 12.3 0.7 0.8 1.3 2.5 1.3 3.8 0 1.3 1.1 4.7 2.5 7.8 4.7 10.8 7 16.3 11.4 28.4 2.5 6.7 6.2 16.2 8.3 20.9 2.1 4.7 3.9 9 3.9 9.5 0 0.5 1.3 3.9 3.1 7.7 1.6 3.8 5.1 12.4 7.5 19.1 2.6 6.7 5.6 14.1 6.9 16.3 1.1 2.3 2.1 4.9 2.1 5.9 0 1.1 1.1 4.1 2.5 6.5 1.3 2.6 2.5 5.9 2.5 7.4 0 1.3 0.7 3.1 1.5 4.1 0.7 0.8 2.8 5.2 4.4 9.6 1.6 4.6 3.9 10 5.1 12.3 1.1 2.3 2.1 5.4 2.1 6.9 0 1.5 0.7 3.1 1.5 3.6 0.8 0.5 2 2.8 2.5 5.1 0.7 2.3 2.8 8 4.9 12.7 2.1 4.6 5.1 12.3 6.7 16.7 1.6 4.6 3.6 8.8 4.4 9.8 0.7 0.8 1.3 2.6 1.3 4.1 0 1.3 1 4.4 2.3 6.7 1.1 2.5 5.4 12.7 9.2 22.9 3.8 10.3 8.7 22.6 10.8 27.3 2.1 4.7 3.9 9.2 3.9 9.8 0.2 0.7 1.5 4.1 3.3 7.7 1.8 3.6 3.1 7.7 3.3 9 0 1.5 0.7 3.3 1.5 4.1 0.7 1 2.8 5.4 4.4 9.8 1.6 4.6 3.9 10 5.1 12.3 1.1 2.3 2.1 5.2 2.1 6.5 0 1.5 0.7 3.3 1.3 4.1 0.8 1 4.6 10.1 8.5 20.4 3.8 10.3 8.3 21.9 10 25.7 1.8 3.8 3.1 7.2 3.1 7.7 0 0.5 1.8 4.7 3.8 9.5 2.1 4.7 4.9 11.3 6 14.4 2.1 5.9 5.7 14.5 8.3 20.4 2.8 6.2 16.2 42.5 16.2 43.8 0 0.7 -97.6 1 -216.8 0.8 l-217 -0.5 -2.6 -7.4 c-1.5 -4.1 -2.9 -8.5 -3.6 -9.8 -0.5 -1.3 -2.8 -8 -5.1 -14.7 -2.1 -6.7 -8 -23.7 -12.9 -37.6 -4.9 -13.9 -10.5 -30.1 -12.6 -35.9 -2 -5.9 -4.1 -12.1 -4.9 -13.9 -0.7 -1.8 -2.5 -6.9 -4.1 -11.4 -1.5 -4.4 -3.3 -9.6 -4.1 -11.4 -0.8 -1.8 -4.6 -12.4 -8.3 -23.7 -5.9 -17.2 -16.7 -48.4 -19.9 -57.2 -2.5 -6.9 -13.4 -38.7 -18.5 -53.9 -3.1 -9.5 -6.4 -18.6 -7.2 -20.4 -0.8 -1.8 -3.1 -8 -4.9 -13.9 -2 -5.9 -4.1 -12.1 -4.9 -13.9 -0.8 -1.8 -2.9 -7.7 -4.7 -13.1 -1.8 -5.4 -6.2 -18.3 -10 -28.6 -3.8 -10.3 -7.5 -21.4 -8.3 -24.5 -1 -3.1 -2.3 -7.2 -3.1 -9 -1.3 -2.9 -9.2 -24.8 -15.5 -44.1 -1.1 -3.6 -5.2 -15 -9 -25.3 -3.8 -10.3 -7.5 -21.4 -8.3 -24.5 -1 -3.1 -2.3 -7.2 -3.1 -9 -0.8 -1.8 -2.8 -6.9 -4.1 -11.4 -1.5 -4.4 -3.3 -9.6 -4.1 -11.4 -0.8 -1.8 -3.3 -8.8 -5.6 -15.5 -2.3 -6.7 -7.2 -20.8 -10.8 -31 -3.8 -10.3 -7.5 -21.4 -8.3 -24.5 -1 -3.1 -2.3 -7.2 -2.9 -9 -0.8 -1.8 -2.6 -6.9 -4.2 -11.4 -1.5 -4.4 -3.3 -9.6 -4.1 -11.4 -1.6 -3.9 -11.8 -33.2 -17.3 -49.8 -2.3 -6.7 -4.7 -13.4 -5.4 -14.7 -0.8 -1.5 -2 -5.1 -2.6 -8.2 -0.7 -3.1 -2.6 -8.5 -4.1 -11.9 -1.6 -3.4 -3.6 -8.5 -4.1 -11.4 -0.7 -2.9 -1.6 -5.9 -2.1 -6.9 -1.1 -1.8 -10.8 -29.4 -17.6 -49.8 -2.3 -6.7 -4.7 -13.4 -5.4 -14.7 -0.8 -1.5 -2 -5.1 -2.6 -8.2 -0.7 -3.1 -2.6 -8.5 -4.1 -11.9 -1.6 -3.4 -3.6 -8.5 -4.2 -11.4 -0.5 -2.8 -1.6 -6.2 -2.3 -7.7 -0.8 -1.3 -2.6 -6 -4.1 -10.6 -1.5 -4.4 -3.3 -9.6 -4.1 -11.4 -0.8 -1.8 -4.1 -11.3 -7.4 -21.2 -3.3 -9.8 -6.5 -19.4 -7.4 -21.2 -0.8 -1.8 -4.4 -12.1 -8 -22.9 -3.6 -10.8 -8 -23.7 -9.8 -28.6 l-3.1 -9 -62.1 -0.5 -62.1 -0.3 -6.7 17.3 c-3.8 9.5 -6.7 18.1 -6.7 19.3 0 1.1 -0.5 2.5 -1 3.1 -1 1 -2.9 6.2 -16.8 44.8 -3.6 10.1 -7.5 20.8 -9 23.7 -1.3 2.9 -4.7 12.4 -7.5 20.9 -2.9 8.5 -6.2 17.8 -7.4 20.4 -1.1 2.8 -3.9 10.1 -6.2 16.3 -5.2 15 -19.1 52.9 -20.8 57.2 -1.6 4.1 -8.3 22.7 -16.5 45.3 -3.4 9.6 -7.4 19.9 -8.7 22.9 -1.3 2.9 -4.2 11.3 -6.7 18.5 -2.5 7.2 -7.5 21.6 -11.4 31.9 -3.8 10.3 -10.5 28.4 -14.7 40 -4.2 11.8 -8.3 22.7 -9 24.5 -1.6 4.1 -8.3 22.7 -16.5 45.3 -3.4 9.6 -7.4 19.9 -8.7 22.9 -1.3 2.9 -4.2 11.3 -6.7 18.5 -2.5 7.2 -7.5 21.6 -11.4 31.9 -3.8 10.3 -10.5 28.4 -14.7 40 -4.2 11.8 -8.3 22.7 -9 24.5 -0.8 1.8 -2 5.1 -2.6 7.4 -0.5 2.3 -2.5 7 -3.9 10.6 -1.6 3.6 -5.7 14.7 -9.2 24.5 -3.3 10 -7.4 20.9 -9 24.5 -1.5 3.6 -4.7 12.4 -7.2 19.6 -2.5 7.2 -7.5 21.6 -11.4 31.9 -3.8 10.3 -10.5 28.4 -14.7 40 -4.2 11.8 -8.3 22.7 -9 24.5 -0.8 1.8 -2 5.1 -2.6 7.4 -0.5 2.3 -2.5 7 -3.9 10.6 -1.6 3.6 -5.7 14.7 -9.2 24.5 -3.3 10 -7.4 20.9 -9 24.5 -1.5 3.6 -4.7 12.4 -7.2 19.6 -2.5 7.2 -7.5 21.6 -11.4 31.9 -3.8 10.3 -10.5 28.4 -14.7 40 -4.2 11.8 -8.3 22.7 -9 24.5 -0.8 1.8 -2 5.1 -2.6 7.4 -0.5 2.3 -2.5 7 -3.9 10.6 -1.6 3.6 -5.7 14.7 -9.2 24.5 -3.3 10 -7.4 20.9 -9 24.5 -1.5 3.6 -4.7 12.4 -7.2 19.6 -2.5 7.2 -7.5 21.6 -11.4 31.9 -3.8 10.3 -10.5 28.4 -14.7 40 -4.2 11.8 -8.3 22.7 -9 24.5 -0.8 1.8 -2 5.1 -2.6 7.4 -0.5 2.3 -2.5 7 -3.9 10.6 -1.6 3.6 -5.7 14.7 -9.2 24.5 -3.3 10 -7.4 20.9 -9 24.5 -1.5 3.6 -4.7 12.4 -7.2 19.6 -2.5 7.2 -7.5 21.6 -11.4 31.9 -12.6 34 -21.9 59.6 -22.9 63.4 l-1 3.6 276.2 0 c219 0 276.5 0.5 278 2.1 1 1 5.4 6.7 10 12.6 10.6 13.4 17.2 21.7 21.4 26.5 1.8 2.1 4.7 5.9 6.7 8.3 2 2.6 4.4 5.6 5.2 6.5 1 1.1 9.6 11.9 19.3 24 9.6 12.1 19.6 24.5 22.1 27.6 2.5 3.1 6 7.4 8 9.6 2.1 2.3 3.8 4.6 3.8 5.1 0 0.5 1.6 2.8 3.8 5.1 2 2.3 6.2 7.4 9.3 11.4 3.1 4.1 6.4 8.2 7.4 9.2 1.8 2 5.6 6.7 25.5 31.7 7.5 9.5 14.1 17.5 14.5 18 0.5 0.5 3.4 4.1 6.5 8.2 8.7 11.3 10.5 13.4 13.1 16.2 1.3 1.5 4.4 5.4 6.9 8.7 2.5 3.3 5.4 6.9 6.5 8.2 1.3 1.1 5.4 6.2 9.2 11.1 8.2 10.5 9.2 11.6 32.5 40.9 9.6 12.1 18 22.4 18.5 22.9 0.5 0.5 3.4 4.1 6.5 8.2 3.1 4.1 6 7.7 6.5 8.2 2.6 2.5 19.6 24.2 19.6 25.2 0 0.5 -316.5 1 -703.5 1 -386.9 0 -703.5 -0.5 -703.5 -1.1z"/>
  <path d="M2161.1 2554.5 c-1.6 -4.4 -3.4 -9.3 -4.1 -11.1 -0.8 -1.8 -3.8 -10.3 -6.5 -18.8 -2.8 -8.5 -5.9 -17 -6.7 -18.8 -0.8 -1.8 -2.9 -8 -4.7 -13.9 -1.8 -5.9 -3.9 -12.1 -4.7 -13.9 -0.8 -1.8 -3.9 -10.3 -6.7 -18.8 -2.8 -8.5 -5.7 -17 -6.4 -18.8 -2.9 -7 -9.8 -26.3 -10.8 -30.2 -0.5 -2.3 -1.6 -5.6 -2.6 -7.4 -0.8 -1.8 -3.3 -8.8 -5.4 -15.5 -5.7 -17.5 -16.3 -47.9 -17.6 -49.8 -0.5 -0.8 -1.5 -3.9 -2.1 -6.9 -0.5 -2.9 -2.5 -8 -4.1 -11.4 -1.5 -3.4 -3.4 -8.8 -4.1 -11.9 -0.7 -3.1 -1.6 -6.4 -2.1 -7.4 -1 -1.6 -8.7 -23.4 -17.3 -49 -2.5 -7.2 -5.1 -14.5 -5.9 -16.3 -0.8 -1.8 -2.6 -6.9 -4.1 -11.4 -1.5 -4.4 -3.4 -9.5 -4.2 -10.9 -0.8 -1.6 -1.5 -3.6 -1.5 -4.6 0 -1.1 74.5 -1.6 226.2 -1.6 l226.2 0 2.1 6.2 c1 3.3 3.6 9.8 5.6 14.2 2 4.6 6.9 16.5 10.6 26.8 3.8 10.1 8 20.4 9.2 22.9 1.3 2.3 2.3 5.6 2.3 7 0 1.5 0.7 3.1 1.5 3.6 0.8 0.5 2 2.8 2.5 5.1 0.7 2.3 2.8 8 4.9 12.7 2 4.6 4.7 11.1 5.9 14.2 1.1 3.1 3.4 8.7 4.9 12.3 1.6 3.6 6.7 16.8 11.4 29.4 4.7 12.6 10.3 26.8 12.4 31.4 2.1 4.7 4.2 10.5 4.9 12.7 0.5 2.3 1.6 4.6 2.5 5.1 0.8 0.5 1.5 2.1 1.5 3.6 0.2 1.5 1.5 5.7 3.3 9.3 1.8 3.6 3.1 7 3.3 7.7 0 0.7 1.8 5.1 3.9 9.8 2.1 4.7 7 17.2 10.8 27.5 3.9 10.3 7.7 19.4 8.5 20.4 0.7 0.8 1.3 2.6 1.3 4.1 0.2 1.3 1.5 5.4 3.3 9 1.8 3.6 3.1 7 3.3 7.7 0 0.7 1.8 5.1 3.9 9.8 2.1 4.7 5.1 12.4 6.7 16.8 1.6 4.6 3.6 8.8 4.4 9.8 0.7 0.8 1.3 2.6 1.3 4.1 0 1.3 1.1 4.6 2.5 7.2 1.3 2.5 2.5 4.9 2.5 5.2 0 0.3 -105.4 0.7 -234.3 0.7 l-234.3 0 -2.8 -7.7z"/>
 </g>
</svg>